# xmcd
#
# Track frame offsets: 
#        150
#        22264
#        39106
#        58874
#        84621
#        127536
#        149412
#        178994
#
# Disc length: 2852 seconds
#
# Revision: 3
# Processed by: cddbd v1.5.2PL0 Copyright (c) Steve Scherf et al.
# Submitted via: ExactAudioCopy v0.99pb4
#
DISCID=6a0b2208
DTITLE=Michel Jonasz - La fabuleuse histoire de Mister Swing CD 1
DYEAR=1996
DGENRE=Pop
TTITLE0=In the Morning
TTITLE1=Mister Swing
TTITLE2=La chanson des musiciens
TTITLE3=La chanson du producteur
TTITLE4=La chanson du compositeur
TTITLE5=Je t'aime
TTITLE6=Poussy
TTITLE7=Fifty Fifty
EXTD=YEAR: 1996 ID3G:   0
EXTT0=
EXTT1=
EXTT2=
EXTT3=
EXTT4=
EXTT5=
EXTT6=
EXTT7=
PLAYORDER=
